<?xml version="1.0" encoding="UTF-8"?>
<!-- Generated by Pixelmator Pro 4.2 -->
<svg width="1080" height="1080" viewBox="0 0 1080 1080" xmlns="http://www.w3.org/2000/svg">
    <g id="g1">
        <g id="g2">
            <linearGradient id="linearGradient1" x1="266.256722" y1="755.611969" x2="409.183256" y2="149.667987" gradientUnits="userSpaceOnUse">
                <stop offset="0" stop-color="#c2c2c2" stop-opacity="1"/>
                <stop offset="1" stop-color="#ffffff" stop-opacity="1"/>
            </linearGradient>
            <path id="path1" fill="url(#linearGradient1)" stroke="none" d="M 37.48 140.879944 L 34.599998 629.76001 L 87.160004 634.799988 L 154.119995 637.680054 L 152.679993 717.599976 L 180.040009 764.400024 L 314.680023 634.799988 L 640.839966 636.23999 L 639.400024 140.879944 C 639.400024 140.879944 39.639999 142.320068 37.48 140.879944 Z"/>
            <path id="path2" fill="#4d4d4d" stroke="none" d="M 35 632 L 35 582 L 161 587 L 156 715 L 306.040009 588.719971 L 502.599976 590.880005 L 504.760071 634.799988 L 314.680023 634.799988 L 180.040009 764.400024 L 147 715 L 150 638 Z"/>
            <path id="path3" fill="none" stroke="#040404" stroke-width="15.85872" stroke-linecap="round" stroke-linejoin="round" d="M 37.48 139.440002 L 35 635 L 152.679993 635.52002 L 149.800003 713.280029 C 149.800003 716.880005 178.600006 764.400024 179.320007 765.119995 L 315.399994 634.799988 L 640.119995 636.23999 L 639.400024 140.879944 C 639.400024 137.279968 637.23999 139.440002 37.48 139.440002 Z"/>
            <g id="g3">
                <path id="path4" fill="#040304" stroke="none" d="M 475.799988 254.47998 L 411 254.47998 L 411 203.360046 L 405.23999 200.47998 L 263.399994 200.47998 L 258.359985 204.799988 L 258.359985 253.76001 L 197.87999 253.76001 L 194.279999 255.200012 L 193.559998 519.440002 L 195.720001 521.599976 L 480.839996 520.880005 L 480.119995 258.080017 L 475.799988 254.47998 Z"/>
                <path id="path5" fill="#ffffff" stroke="none" d="M 368.519989 229.280029 L 300.119995 229.280029 L 300.119995 282.559998 L 232.440002 282.559998 L 232.440002 488.480042 L 304.440002 488.480042 L 304.440002 428.719971 L 367.080017 428.719971 L 367.080017 488.480042 L 440.519989 488.480042 L 439.799988 282.559998 L 368.519989 281.839966 L 368.519989 229.280029 Z"/>
                <path id="path6" fill="#040304" stroke="none" d="M 303 309.200012 L 303 376.160034 L 366.359985 376.160034 L 366.359985 309.919983 L 303 309.200012 Z"/>
            </g>
        </g>
        <g id="g4">
            <linearGradient id="linearGradient2" x1="639.712073" y1="914.901835" x2="872.447949" y2="347.978176" gradientUnits="userSpaceOnUse">
                <stop offset="0" stop-color="#3478f6" stop-opacity="1"/>
                <stop offset="1" stop-color="#53b6f9" stop-opacity="1"/>
            </linearGradient>
            <path id="path7" fill="url(#linearGradient2)" stroke="none" d="M 468.439972 321.47998 L 472.76001 821.880005 L 794.599976 826.200012 L 900.440002 941.400024 L 940.76001 901.080017 L 943.639954 829.080017 L 999.799988 831.960022 L 1043.720093 754.919983 L 1023.559998 322.919983 L 468.439972 321.47998 Z"/>
            <path id="path8" fill="#0c3560" stroke="none" d="M 473 755 L 473.478058 819.258911 L 792.582397 822.202148 L 898.711487 941.400024 L 936 902.403137 L 814.095093 755.245239 L 473 755 Z"/>
            <path id="path9" fill="#0c3560" stroke="none" d="M 936 755 L 935.720032 829.080017 L 999.799988 831.960022 L 1043.720093 754.919983 L 936 755 Z"/>
            <path id="path10" fill="none" stroke="#000000" stroke-width="15.672241" stroke-linecap="round" stroke-linejoin="round" d="M 468.439972 321.47998 L 468 821 L 793.880005 824.76001 L 794.599976 825.47998 L 896.839966 938.52002 L 901.160034 941.400024 L 940.76001 901.799988 L 943.639954 829.080017 L 999.799988 831.960022 L 1044 755 L 1024.279907 324.360046 Z"/>
            <g id="g5">
                <path id="path11" fill="#030303" stroke="none" d="M 895.360046 414.76001 L 808.960022 414.039978 L 808.960022 375.880005 L 803.919983 366.52002 L 706.719971 366.52002 L 695.919983 377.320007 L 695.919983 413.320007 L 612.400024 413.320007 L 601.599976 424.839966 L 602.320007 497.559998 L 609.519958 505.480042 L 656.320007 505.480042 L 657.039978 545.080017 L 664.23999 553.719971 L 697.360046 553.719971 L 698.080017 578.919983 L 667.119995 578.919983 L 657.039978 589.719971 L 657.039978 624.280029 L 619.599976 623.560059 L 609.519958 634.359985 L 610.23999 707.799988 L 615.280029 713.560059 L 695.919983 713.560059 L 706.719971 703.47998 L 706.719971 671.799988 L 734.080017 672.52002 L 748.47998 661 L 751.360046 633.640015 L 758.559998 633.640015 L 758.559998 659.560059 L 765.76001 671.799988 L 802.47998 671.799988 L 802.47998 706.359985 L 807.519958 714.280029 L 893.200012 713.560059 L 901.839966 705.640015 L 901.839966 632.919983 L 895.360046 625 L 854.320007 625 L 853.599976 586.119995 L 847.119995 578.200012 L 808.960022 578.200012 L 808.960022 553.719971 L 839.919983 554.440002 L 851.440002 543.639954 L 851.440002 505.480042 L 896.080017 506.200012 L 909.039978 493.960022 L 908.320068 421.23999 Z"/>
                <path id="path12" fill="#fcfcfc" stroke="none" d="M 723.280029 390.280029 L 723.280029 436.360046 L 629.679993 436.360046 L 629.679993 479.559998 L 678.639954 479.559998 L 679.360046 530.679993 L 726.160034 530.679993 L 727.599976 596.919983 L 682.23999 597.640015 L 681.52002 643 L 636.160034 643.719971 L 636.160034 688.359985 L 684.400024 688.359985 L 685.839966 646.599976 L 729.039978 646.599976 L 729.039978 604.119995 L 782.320007 604.119995 L 782.320007 647.319946 L 829.119995 648.039978 L 829.119995 688.359985 L 877.360046 688.359985 L 876.639954 645.880005 L 831.280029 644.439941 L 830.559998 598.359985 L 783.76001 597.640015 L 782.320007 529.960022 L 829.119995 529.960022 L 829.119995 479.559998 L 883.119995 479.559998 L 883.119995 436.360046 L 781.599976 436.360046 L 781.599976 390.280029 L 723.280029 390.280029 Z"/>
                <path id="path13" fill="#040304" stroke="none" d="M 729.039978 478.839966 L 729.039978 524.919983 L 779.440002 524.919983 L 779.440002 478.839966 L 729.039978 478.839966 Z"/>
            </g>
        </g>
    </g>
</svg>
